# xmcd
#
# Track frame offsets:
#	150
#	12325
#	24860
#	41480
#	55165
#	67927
#	80345
#	92145
#	103650
#	112642
#	125970
#	139067
#
# Disc length: 2038 seconds
#
# Revision: 0
# Processed by: cddbd v1.5.2PL0 Copyright (c) Steve Scherf et al.
# Submitted via: audiograbber 1.83.01
#
DISCID=9207f40c
DTITLE=Miltinho - Em Tempo de Bolero
DYEAR=1950
DGENRE=Bolero
TTITLE0=QUIEN YO QUIERO NO ME QUIERE
TTITLE1=SEGREDO
TTITLE2=PALABRA DE CARINO
TTITLE3=RICOS BESOS
TTITLE4=TODO EL MUNDO SABE
TTITLE5=TUS LINDOS OJOS
TTITLE6=DISTANCIA
TTITLE7=SONAR CONTIGO
TTITLE8=PORQUE NO TE VAS
TTITLE9=PORQUE NO TE QUEDAS
TTITLE10=ESTOY PENSANDO EN TI
TTITLE11=TWIST CON SON
EXTD=
EXTT0=
EXTT1=
EXTT2=
EXTT3=
EXTT4=
EXTT5=
EXTT6=
EXTT7=
EXTT8=
EXTT9=
EXTT10=
EXTT11=
PLAYORDER=
